<?xml version="1.0" standalone="no"?>
<!DOCTYPE svg PUBLIC "-//W3C//DTD SVG 20010904//EN"
 "http://www.w3.org/TR/2001/REC-SVG-20010904/DTD/svg10.dtd">
<svg version="1.0" xmlns="http://www.w3.org/2000/svg"
 width="800.000000pt" height="800.000000pt" viewBox="0 0 800.000000 800.000000"
 preserveAspectRatio="xMidYMid meet">
<metadata>
Created by potrace 1.11, written by Peter Selinger 2001-2013
</metadata>
<g transform="translate(0.000000,800.000000) scale(0.100000,-0.100000)"
fill="#000000" stroke="none">
<path d="M1312 5689 c-21 -33 -6 -54 78 -110 43 -29 77 -55 75 -58 -2 -3 -28
-43 -57 -87 l-54 -82 -45 34 c-24 18 -48 34 -52 34 -4 0 -21 9 -36 21 -31 23
-59 20 -77 -9 -19 -30 1 -58 78 -107 40 -26 75 -49 77 -51 2 -1 -6 -16 -18
-32 -12 -17 -21 -34 -21 -39 1 -7 224 -155 322 -212 75 -44 170 -21 213 51
l16 28 37 -19 c61 -31 130 -61 140 -61 5 0 37 -9 70 -20 80 -26 251 -49 333
-44 131 7 178 16 359 64 382 102 615 136 920 135 279 -1 547 -50 775 -140 81
-33 253 -120 276 -141 8 -8 19 -14 23 -14 4 0 43 -27 87 -61 156 -119 345
-315 439 -457 19 -28 42 -54 50 -56 8 -3 53 -12 100 -21 276 -53 597 -196 738
-329 83 -76 146 -180 185 -301 22 -67 39 -252 31 -326 -7 -66 1 -62 -122 -60
-89 1 -119 -23 -135 -107 -13 -64 -71 -164 -132 -226 -102 -103 -256 -164
-385 -153 -98 8 -118 14 -205 57 -136 66 -232 181 -269 324 -8 33 -24 69 -36
80 -21 21 -21 21 -1116 22 -1039 1 -1096 0 -1118 -17 -14 -11 -33 -50 -51
-104 -46 -143 -138 -249 -270 -312 -262 -124 -565 -10 -691 260 -13 29 -24 60
-24 70 0 36 -31 85 -59 95 -15 5 -50 10 -77 10 -27 0 -65 1 -84 1 l-35 1 -17
98 c-10 53 -20 122 -24 152 -9 81 -6 267 5 326 25 134 105 326 186 447 41 61
44 94 10 131 -46 50 -127 25 -165 -51 -8 -15 -20 -35 -26 -43 -31 -38 -96
-176 -128 -274 -69 -204 -80 -402 -40 -676 3 -19 16 -80 30 -135 34 -136 47
-149 157 -152 45 -1 87 -2 93 -2 6 -1 23 -28 38 -62 14 -34 42 -84 61 -113 32
-48 118 -146 129 -146 3 0 16 -10 29 -22 42 -39 158 -96 237 -116 96 -25 233
-28 325 -7 63 15 182 60 195 75 3 3 31 23 63 45 91 61 201 203 233 297 13 41
20 48 42 49 34 1 1920 1 1948 0 15 -1 25 -14 39 -52 10 -29 40 -85 67 -125
237 -354 737 -410 1036 -115 106 105 121 125 177 256 16 38 19 38 154 36 58 0
97 27 113 82 8 27 13 106 13 222 -1 208 -19 302 -86 437 -50 103 -84 150 -165
231 -165 164 -421 289 -769 377 -66 16 -121 34 -123 40 -2 6 -9 16 -16 23 -6
6 -34 41 -61 77 -168 221 -419 427 -678 554 -62 31 -132 62 -157 71 -318 111
-488 139 -845 139 -220 0 -283 -3 -410 -22 -157 -24 -358 -66 -485 -102 -223
-62 -289 -73 -415 -66 -135 6 -245 31 -350 78 -38 18 -72 33 -74 34 -2 2 7 18
20 36 31 42 33 130 6 172 -18 26 -323 234 -358 243 -15 4 -25 -6 -55 -55 -1
-1 -36 20 -77 48 -83 54 -115 61 -135 29z"/>
<path d="M3821 4781 c-12 -16 -21 -33 -21 -37 0 -4 -35 -78 -77 -164 -42 -85
-77 -157 -78 -160 0 -3 -17 -36 -36 -75 -20 -38 -58 -116 -84 -173 -59 -129
-57 -132 67 -132 l89 0 -6 -112 c-12 -222 -14 -403 -5 -418 23 -37 47 2 225
371 33 68 60 126 60 129 0 3 24 51 52 106 71 141 66 156 -53 153 -39 -1 -75 1
-81 4 -5 3 -8 32 -7 64 1 32 5 134 9 227 3 94 6 172 7 175 3 29 -5 52 -21 61
-16 8 -23 5 -40 -19z"/>
</g>
</svg>
